# xmcd
#
# Track frame offsets: 
#        182
#        18295
#        37172
#        56557
#        71665
#        88470
#        106195
#        128165
#        142042
#        161742
#
# Disc length: 2427 seconds
#
# Revision: 5
# Processed by: cddbd v1.5.2PL0 Copyright (c) Steve Scherf et al.
# Submitted via: ExactAudioCopyFreeDBPlugin 1.0
#
DISCID=9009790a
DTITLE=Pino Daniele - Mascalzone Latino
DYEAR=1989
DGENRE=Latin
TTITLE0=Anna verrà
TTITLE1=Faccia gialla
TTITLE2=N'ata stagione
TTITLE3='A speranza e' semp' sola
TTITLE4=Carte e cartuscelle
TTITLE5=Ammore scumbinato
TTITLE6='O 'mericano
TTITLE7=Aria strana
TTITLE8=Giungla
TTITLE9=Sambaccussì
EXTD=
EXTT0=
EXTT1=
EXTT2=
EXTT3=
EXTT4=
EXTT5=
EXTT6=
EXTT7=
EXTT8=
EXTT9=
PLAYORDER=
